<?xml version="1.0" encoding="UTF-8"?>
<svg width="9px" height="13px" viewBox="0 0 9 13" version="1.1" xmlns="http://www.w3.org/2000/svg" xmlns:xlink="http://www.w3.org/1999/xlink">
    <g id="Page-1" stroke="none" stroke-width="1" fill="none" fill-rule="evenodd">
        <g id="16.-sign-up" transform="translate(-987.000000, -117.000000)" fill="#F26724">
            <g id="Menu" transform="translate(81.000000, 87.000000)">
                <g transform="translate(624.000000, 27.000000)" id="17-copy-17">
                    <path d="M286.493232,16 C286.605734,16 286.712366,15.4875294 286.786715,15.4031079 C286.959283,15.2072343 291.014051,10.5685558 290.999963,7.50979368 C290.988811,5.02317838 288.970036,3 286.50008,3 C284.018579,3 282,5.02396187 282,7.51175242 C282,10.5687516 286.027571,15.2062549 286.199161,15.4021285 C286.273315,15.4869418 286.37486,15.5329721 286.493232,15.5357143 L286.493232,16 Z M286.500094,6 C285.67298,6 285,6.6729375 285,7.5 C285,8.32725 285.67298,9 286.500094,9 C287.327208,9 288,8.32725 288,7.5 C288,6.6729375 287.327208,6 286.500094,6 Z"></path>
                </g>
            </g>
        </g>
    </g>
</svg>